HIERARCHY
ROOT base
{
	OFFSET 0.0 0.0 0.0
	CHANNELS 6 Xposition Yposition Zposition Zrotation Yrotation Xrotation
	JOINT root
	{
		OFFSET 0 0 0
		CHANNELS 6 Xposition Yposition Zposition Zrotation Yrotation Xrotation
		JOINT chest
		{
			OFFSET 0 4.72302 0
			CHANNELS 3 Zrotation Yrotation Xrotation
			JOINT neck
			{
				OFFSET 0 4.47788 0
				CHANNELS 3 Zrotation Yrotation Xrotation
				End Site
				{
					OFFSET 0.0 0.0 0.0
				}
			}
			JOINT right_shoulder
			{
				OFFSET -0.481 4.87 3.6622
				CHANNELS 3 Zrotation Yrotation Xrotation
				JOINT right_elbow
				{
					OFFSET 0 -5.49576 0
					CHANNELS 3 Zrotation Yrotation Xrotation
					JOINT right_wrist
					{
						OFFSET 0 -5.17894 0
						CHANNELS 3 Zrotation Yrotation Xrotation
						End Site
						{
							OFFSET 0.0 0.0 0.0
						}
					}
				}
			}
			JOINT left_shoulder
			{
				OFFSET -0.481 4.87 -3.6622
				CHANNELS 3 Zrotation Yrotation Xrotation
				JOINT left_elbow
				{
					OFFSET 0 -5.49576 0
					CHANNELS 3 Zrotation Yrotation Xrotation
					JOINT left_wrist
					{
						OFFSET 0 -5.17894 0
						CHANNELS 3 Zrotation Yrotation Xrotation
						End Site
						{
							OFFSET 0.0 0.0 0.0
						}
					}
				}
			}
		}
		JOINT right_hip
		{
			OFFSET 0 0 1.69774
			CHANNELS 3 Zrotation Yrotation Xrotation
			JOINT right_knee
			{
				OFFSET 0 -8.43092 0
				CHANNELS 3 Zrotation Yrotation Xrotation
				JOINT right_ankle
				{
					OFFSET 0 -8.1974 0
					CHANNELS 3 Zrotation Yrotation Xrotation
					End Site
					{
						OFFSET 0.0 0.0 0.0
					}
				}
			}
		}
		JOINT left_hip
		{
			OFFSET 0 0 -1.69774
			CHANNELS 3 Zrotation Yrotation Xrotation
			JOINT left_knee
			{
				OFFSET 0 -8.43092 0
				CHANNELS 3 Zrotation Yrotation Xrotation
				JOINT left_ankle
				{
					OFFSET 0 -8.1974 0
					CHANNELS 3 Zrotation Yrotation Xrotation
					End Site
					{
						OFFSET 0.0 0.0 0.0
					}
				}
			}
		}
	}
	JOINT red_arrow
	{
		OFFSET 0 0 0
		CHANNELS 3 Zrotation Yrotation Xrotation
		End Site
		{
			OFFSET 0.0 0.0 0.0
		}
	}
	JOINT blue_arrow
	{
		OFFSET 0 0 0
		CHANNELS 3 Zrotation Yrotation Xrotation
		End Site
		{
			OFFSET 0.0 0.0 0.0
		}
	}
}
MOTION
Frames: 7
Frame Time: 0.0333333333333333
215.041527026892 0 5.4894855260849 0 -1.74496057909309 0 0 15.4432860732079 0 -20.960729688613 -3.34450938192396 5.85580757967102 -10.5143921421689 -3.825148966346 3.47439713682192 9.21260237043784 6.2050557899707 12.4441758209959 -34.3762307513939 -7.34317360240381 -23.0074137772748 71.388522487948 0 0 0 0 0 18.0534016649067 -10.3357703615325 20.4391297237242 95.461688142198 0 0 0 0 0 62.7091444093578 -7.46078016416909 -5.6729312028715 -54.176510666313 0 0 14.1772342328101 -6.94033269676851 -4.94813594460749 -6.72680494469191 5.60201256939612 -0.106096183726242 -82.4430743765869 0 0 -11.3488083485575 0.638422529453734 -3.63477140997239 0 0 0 0 0 0
216.991417425871 0 6.05791884362698 0 -2.226166461263 0 0 15.5782206535339 0 -23.9298083503618 -8.36865519321762 3.70352218735158 -6.56362759327875 -1.8128176456981 3.25611209569095 7.21322685439984 3.38543332654053 11.542329056183 -15.187160142593 5.37579120975749 -20.6736450452051 72.359263123736 0 0 0 0 0 8.10716338278118 -8.78699597941117 15.4784409282669 79.7696973543089 0 0 0 0 0 57.5126964563075 -7.62805210476752 0.909242790144717 -55.3629281855225 0 0 22.2422284198854 -6.06847586889381 -5.02652592959426 8.97801270670322 5.57006179627031 1.24584659209211 -101.874552753923 0 0 -0.617302384341794 3.69766248769796 -2.04594621295876 0 0 0 0 0 0
218.739796686172 0 6.56792392730713 0 -3.02594442591271 0 0 16.1266965270042 0 -29.2843031954533 -13.3278585436947 2.65352623723085 -0.536789250657953 0.198803236015054 2.21074386198613 7.48901960346219 -3.72030966865855 9.94539168932301 6.59420175402922 21.1255438439832 -26.1623468636571 74.7321869546143 0 0 0 0 0 -10.1702548718341 -18.3379180014079 21.4316852438089 57.5638302870595 0 0 0 0 0 50.3408010266055 -7.80385436220555 6.36432097134606 -46.1048970486099 0 0 24.0647496168952 -2.49692153748771 -4.67646375958653 34.7987930164425 4.09993605935064 7.62868007457058 -114.561424231547 0 0 9.17321527829317 13.5964487453986 -6.55572604584857 0 0 0 0 0 0
220.616252458096 0 7.22596288472414 0 -3.9040650860686 0 0 16.7931348323822 0 -33.0376002107368 -14.1039245574957 0.426618088040792 5.0002597322188 2.38884192654334 1.92401653521185 4.60887331842953 -5.67980226797826 6.99985496417557 22.8938508581052 32.9190848466317 -35.851524405792 83.1360380490197 0 0 0 0 0 -41.4731293736804 -25.8046568567559 38.0710406066811 48.3979554775233 0 0 0 0 0 36.4088683408152 -9.14578646909653 10.3333466940599 -26.392240273712 0 0 21.0464013815042 0.933550870206878 -3.76449757717939 61.2833404996281 -8.32519120827972 13.0658773607842 -116.286402166812 0 0 7.00213325602243 26.9346850409902 -21.9822343811637 0 0 0 0 0 0
222.826048362255 0 7.6860819965601 0 -4.44298391070242 0 0 17.3320118904114 0 -32.4552624575396 -8.66663008723566 -0.490867633570759 3.35841835218607 1.85726620098907 0.680200641937069 4.81254739645692 -8.64350382335133 4.87415427764731 31.6999312560996 34.9425338738645 -39.6280866061356 100.012854922042 0 0 0 0 0 -64.2380344422422 -19.1397393847821 46.9554136652354 59.6897403266043 0 0 0 0 0 23.6244018499413 -5.01646085360844 9.49636840561326 -13.2705504157889 0 0 9.70159249486294 -5.78266552716602 -2.49056150412671 78.5576006309664 -16.3728890140781 6.5267317752432 -107.107208488394 0 0 -0.777790016255386 31.1577341093779 -39.045364102095 0 0 0 0 0 0
225.030693697929 0 7.94850683137775 0 -4.73807455057764 0 0 17.9571620583534 0 -31.9884390823847 -4.75962781073379 -0.695414371750755 -1.12110207932951 1.88301962792752 0.368818698436998 5.22980591348271 -8.56591186187698 3.11687205866138 34.2821845397331 34.7064063852793 -45.7932898642617 111.809541014948 0 0 0 0 0 -69.3926258651563 -10.8982413045238 44.399233716601 69.3250130566604 0 0 0 0 0 17.1790466243259 -3.56260624898496 7.40397200793375 -9.77205580592209 0 0 -13.945757274654 -8.45322761017226 2.65145277184725 84.8186935340224 -15.1830411090773 1.68224491534186 -88.4158699000879 0 0 -0.732305337747478 27.9963527932848 -41.4642066657668 0 0 0 0 0 0
227.379615008831 0 8.17191082835197 0 -4.82071169469704 0 0 18.4145007610321 0 -30.1634434632648 -1.35759225350586 -0.432149460759865 -5.03482657747828 2.18263456420867 0.258013900839409 2.5280663662206 -5.93558611261533 2.12335661496679 34.7070445737776 32.4280103422837 -53.100265305722 111.693960553813 0 0 0 0 0 -66.7496190123208 -4.08561714294158 39.1492149260833 71.7229490402793 0 0 0 0 0 9.43547012196847 -1.62135284937645 4.87288561540835 -8.94496600121044 0 0 -28.8435332433331 -2.90769183617739 4.34612946083022 82.1300874064163 -11.1477506866566 -1.00330307037807 -62.8697329701897 0 0 2.52422953907248 25.503081429622 -38.3849826433733 0 0 0 0 0 0
